<svg xmlns="http://www.w3.org/2000/svg" viewBox="0 0 16 17"><symbol xmlns="http://www.w3.org/2000/svg" fill="none" viewBox="0 0 16 17" id="b"><g clip-path="url(#a)"><path fill-rule="evenodd" clip-rule="evenodd" d="M3.01.86c-.432.606-.811 1.043-1.545 1.78C.301 3.81.003 4.327 0 5.18c0 .267.017.404.072.562.04.115.122.286.182.38.212.33.612.611.992.699.248.057.604.043.85-.032.277-.086.49-.219.716-.447l.172-.173-.022.205a1.879 1.879 0 01-.308.79 2.954 2.954 0 01-.328.372c-.182.173-.205.209-.166.257.04.048.18.054 1.112.046.964-.008 1.068-.015 1.078-.068.007-.036-.081-.151-.216-.286-.226-.226-.438-.558-.52-.814-.054-.17-.102-.52-.072-.52.013 0 .059.049.103.108.136.184.49.417.754.497.199.06.308.072.571.058.22-.01.392-.042.532-.096.381-.147.76-.529.915-.92.055-.14.08-.298.092-.568.017-.423-.033-.684-.205-1.05-.194-.415-.468-.758-1.222-1.527-.824-.84-1.11-1.169-1.532-1.757L3.266.5 3.01.86zM9.887.553a1.928 1.928 0 00-1.112.808c-.207.32-.285.604-.285 1.045 0 .224.022.467.057.612.103.428.366.918.743 1.385.079.097.496.534.926.972.861.874 1.245 1.316 1.71 1.97.17.238.317.433.33.433.011 0 .081-.092.155-.203.44-.662.932-1.24 1.896-2.218.44-.447.901-.948 1.024-1.113.24-.323.532-.898.601-1.184.023-.097.051-.313.062-.48.038-.584-.152-1.115-.536-1.497a1.914 1.914 0 00-.854-.496c-.271-.07-.73-.069-.974.003a1.91 1.91 0 00-.83.487 2.288 2.288 0 00-.328.433c-.063.12-.141.335-.174.478l-.058.26L12.19 2a1.747 1.747 0 00-.521-.954 1.745 1.745 0 00-.856-.495 2.179 2.179 0 00-.926.002zm1.967 8.62c-.509.13-.992.505-1.212.943a1.7 1.7 0 00-.187.948c.02.336.119.625.311.904l.115.167-.1-.025c-.2-.05-.668-.025-.908.049-.283.087-.613.3-.808.522-.332.376-.512.967-.434 1.428.02.123.073.317.115.43.164.432.58.834 1.05 1.014.258.1.721.132 1 .07.407-.09.827-.355 1.042-.659.06-.087.117-.14.125-.117.029.088-.078.49-.198.74a1.756 1.756 0 01-.39.53c-.206.205-.257.276-.23.318.03.046.183.055 1.04.064.552.005 1.04 0 1.084-.01.044-.01.08-.042.08-.07 0-.028-.108-.16-.24-.291a2.044 2.044 0 01-.602-1.287c.005-.018.08.057.167.165.179.223.477.435.773.549.253.097.719.13.995.07a1.75 1.75 0 00.886-.492 2.09 2.09 0 00.33-.429c.352-.711.241-1.494-.293-2.064a1.854 1.854 0 00-.863-.513c-.19-.046-.663-.056-.82-.016l-.097.024.092-.121c.155-.203.305-.565.342-.826a1.801 1.801 0 00-.654-1.652c-.41-.331-1.04-.482-1.51-.363zm-8.63.027c0 .069-.405.78-.688 1.21A10.479 10.479 0 01.68 12.524l-.333.286.226.193c.36.306 1.127 1.089 1.39 1.417.331.413.812 1.141 1.067 1.617a3.4 3.4 0 00.232.397c.01 0 .07-.104.134-.233.26-.526.735-1.252 1.19-1.816a12.71 12.71 0 011.29-1.318l.296-.252-.208-.177a13.697 13.697 0 01-1.288-1.292c-.508-.613-.97-1.31-1.244-1.872-.144-.296-.207-.38-.207-.275z" fill="#F9B242"/></g><defs><clipPath id="a"><path fill="#fff" transform="translate(0 .5)" d="M0 0h16v16H0z"/></clipPath></defs></symbol><use href="#b"/></svg>