<svg viewBox="0 0 48 48" fill="none" xmlns="http://www.w3.org/2000/svg" class="icon-category-tab is-popular"><circle cx="24" cy="24" r="24" fill="url(#a)"/><g clip-path="url(#b)"><path d="M20.5552 15.8916L17.0844 9.16293C17.0367 9.07043 17.0711 8.95443 17.1609 8.90171C21.0438 6.62045 22.6502 10.9995 25.5 10.9995C26.9276 10.9995 28.3156 10.4489 29.2817 9.89669C29.4847 9.78063 29.94 10.1562 29.8381 10.3667L27.1657 15.8871C27.1323 15.9561 27.0624 16 26.9857 16H20.733C20.6581 16 20.5896 15.9582 20.5552 15.8916Z" fill="white"/><path fill-rule="evenodd" clip-rule="evenodd" d="M12 31.5C12 27.0128 17.0698 21.3879 20.6188 18H27.3812C30.9302 21.3879 36 27.0128 36 31.5C36 38.4036 30.6274 40 24 40C17.3726 40 12 38.4036 12 31.5ZM24.5576 35.918C24.4476 36.028 24.3079 36.083 24.1387 36.083C23.9694 36.083 23.8255 36.028 23.707 35.918C23.597 35.8079 23.542 35.6641 23.542 35.4863V34.5723C22.6872 34.4876 21.9382 34.2253 21.2949 33.7852C20.6517 33.3366 20.2412 32.7441 20.0635 32.0078C20.0465 31.9401 20.0296 31.8766 20.0127 31.8174C20.0042 31.7497 20 31.682 20 31.6143C20 31.3942 20.0677 31.2165 20.2031 31.0811C20.347 30.9372 20.5247 30.8652 20.7363 30.8652C20.9225 30.8652 21.0791 30.9202 21.2061 31.0303C21.3415 31.1318 21.4473 31.2884 21.5234 31.5C21.625 31.9232 21.8408 32.2829 22.1709 32.5791C22.5094 32.8753 22.9665 33.0658 23.542 33.1504V29.3926L23.4531 29.3672C22.3952 29.1217 21.5954 28.7493 21.0537 28.25C20.512 27.7507 20.2412 27.099 20.2412 26.2949C20.2412 25.4316 20.5501 24.7207 21.168 24.1621C21.7858 23.5951 22.5771 23.2565 23.542 23.1465V22.2705C23.542 21.8727 23.7409 21.6738 24.1387 21.6738C24.3079 21.6738 24.4476 21.7288 24.5576 21.8389C24.6761 21.9489 24.7354 22.0928 24.7354 22.2705V23.1465C25.5479 23.2396 26.2503 23.5104 26.8428 23.959C27.4437 24.3991 27.8288 24.9619 27.998 25.6475C28.015 25.7152 28.0277 25.7829 28.0361 25.8506C28.0531 25.9098 28.0615 25.9733 28.0615 26.041C28.0615 26.2611 27.9896 26.443 27.8457 26.5869C27.7103 26.7223 27.5326 26.79 27.3125 26.79C26.9401 26.79 26.682 26.5827 26.5381 26.168C26.4111 25.7448 26.1911 25.402 25.8779 25.1396C25.5732 24.8688 25.1924 24.6911 24.7354 24.6064V28.1484L24.9131 28.1865C26.0133 28.3812 26.8428 28.7409 27.4014 29.2656C27.96 29.7904 28.2393 30.4844 28.2393 31.3477C28.2393 32.304 27.9007 33.0615 27.2236 33.6201C26.555 34.1702 25.7256 34.4961 24.7354 34.5977V35.4863C24.7354 35.6641 24.6761 35.8079 24.5576 35.918ZM23.542 27.8301L23.4531 27.8047C22.8861 27.6354 22.4671 27.4238 22.1963 27.1699C21.9339 26.9076 21.8027 26.5902 21.8027 26.2178C21.8027 25.8285 21.9551 25.4857 22.2598 25.1895C22.5729 24.8932 23.0003 24.6986 23.542 24.6055V27.8301ZM24.7354 29.6973L25.0146 29.7607C25.624 29.93 26.0514 30.1501 26.2969 30.4209C26.5423 30.6917 26.665 31.0303 26.665 31.4365C26.665 31.8851 26.5042 32.266 26.1826 32.5791C25.8695 32.8838 25.387 33.0742 24.7354 33.1504V29.6973Z" fill="white"/></g><defs><linearGradient id="a" x1="49.8052" y1="23.658" x2="-0.331462" y2="22.8745" gradientUnits="userSpaceOnUse"><stop stop-color="#FF0909"/><stop offset="1" stop-color="#FFA34E"/></linearGradient><clipPath id="b"><rect width="32" height="32" fill="white" transform="translate(8 8)"/></clipPath></defs></svg>