<svg viewBox="0 0 48 48" fill="none" xmlns="http://www.w3.org/2000/svg" class="icon-category-tab is-popular"><circle cx="24" cy="24" r="24" fill="url(#a)"/><circle cx="11" cy="17" r="3" fill="white"/><circle cx="37" cy="17" r="3" fill="white"/><circle cx="24" cy="14" r="4" fill="white"/><rect x="13" y="32" width="22" height="6" rx="1" fill="white"/><path d="M12.8229 29.222L10.1786 17.6078C10.0743 17.1499 10.3028 16.681 10.7278 16.481L11.1862 16.2653C11.6489 16.0476 12.2014 16.214 12.4668 16.6512L15.2702 21.2685C15.6272 21.8566 16.4576 21.9169 16.8958 21.3866L22.7 14.363C22.89 14.1331 23.1727 14 23.4709 14H24.5291C24.8273 14 25.11 14.1331 25.3 14.363L31.1042 21.3866C31.5424 21.9169 32.3728 21.8566 32.7298 21.2685L35.5332 16.6512C35.7986 16.214 36.3511 16.0476 36.8138 16.2653L37.2722 16.481C37.6972 16.681 37.9257 17.1499 37.8214 17.6078L35.1771 29.222C35.0735 29.6771 34.6688 30 34.2021 30H13.7979C13.3312 30 12.9265 29.6771 12.8229 29.222Z" fill="white"/><defs><linearGradient id="a" x1="49.8052" y1="23.658" x2="-0.331462" y2="22.8745" gradientUnits="userSpaceOnUse"><stop stop-color="#8409FF"/><stop offset="1" stop-color="#D14EFF"/></linearGradient></defs></svg>