<svg viewBox="0 0 48 48" fill="none" xmlns="http://www.w3.org/2000/svg" class="icon-category-tab is-popular"><circle cx="24" cy="24" r="24" fill="url(#a)"/><g clip-path="url(#b)"><path fill-rule="evenodd" clip-rule="evenodd" d="M23.3894 11.66L27.4466 18.4741H19.3322L23.3894 11.66ZM22.0501 10L18.234 16.4091L16.3259 10H22.0501ZM14.5442 11.0245L16.762 18.4741H7.89077L14.5442 11.0245ZM7.84326 20.4741L22.5749 37.9994L17.3574 20.4741H7.84326ZM25.2612 37.9997L39.993 20.4741H30.4787L25.2612 37.9997ZM40.836 19.4712L40.836 19.4712L40.836 19.4711V19.4712ZM39.9455 18.4741L33.292 11.0244L31.0741 18.4741H39.9455ZM31.5102 10L29.2497 17.593L24.7287 10H31.5102ZM28.392 20.4741L23.9181 35.5019L19.4442 20.4741H28.392Z" fill="white"/></g><defs><linearGradient id="a" x1="49.8052" y1="23.658" x2="-0.331462" y2="22.8745" gradientUnits="userSpaceOnUse"><stop stop-color="#80DB69"/><stop offset="1" stop-color="#59B12F"/></linearGradient><clipPath id="b"><rect width="32" height="32" fill="white" transform="translate(8 8)"/></clipPath></defs></svg>