<svg xmlns="http://www.w3.org/2000/svg" viewBox="0 0 16 16"><symbol xmlns="http://www.w3.org/2000/svg" fill="none" viewBox="0 0 16 16" id="a"><path fill-rule="evenodd" clip-rule="evenodd" d="M14 14c-2 0-3-2-6-2s-4 2-6 2c-1 0-2 0-2-2C0 7 2 2 4 2s2 1 4 1 2-1 4-1c3 0 4 9 4 10s0 2-2 2zM7 7H5V5H4v2H2v1h2v2h1V8h2V7zm2.5 0c-.3 0-.5.2-.5.5s.2.5.5.5.5-.2.5-.5-.2-.5-.5-.5zm2-2c-.3 0-.5.2-.5.5s.2.5.5.5.5-.2.5-.5-.2-.5-.5-.5zm0 4c-.3 0-.5.2-.5.5s.2.5.5.5.5-.2.5-.5-.2-.5-.5-.5zm2-2c-.3 0-.5.2-.5.5s.2.5.5.5.5-.2.5-.5-.2-.5-.5-.5z" fill="#F9B242"/></symbol><use href="#a"/></svg>