<svg xmlns="http://www.w3.org/2000/svg" viewBox="0 0 16 17"><symbol xmlns="http://www.w3.org/2000/svg" fill="none" viewBox="0 0 16 17" id="b"><g clip-path="url(#a)"><path fill-rule="evenodd" clip-rule="evenodd" d="M1 1.167h1.253s0 .667 1.292.666C4.836 1.832 5.794.5 7.265.5c2.662 0 3.094 1.998 5.01 1.998 1.917 0 1.842-1.045 2.506-.666.664.379-.306 2-1.253 3.331-.946 1.33-2.185 2.86-2.505 5.33-.32 2.47 0 5.995 0 5.995H4.759V14.49c0-2.288 1.126-5.328 3.758-6.662 2.633-1.335 3.133-2.665 3.133-2.665S9.91 6.494 7.89 6.494 5.704 5.162 4.133 5.162c-1.57 0-1.88 3.331-1.88 3.331H1.002V1.167H1z" fill="#F9B242"/></g><defs><clipPath id="a"><path fill="#fff" transform="translate(0 .5)" d="M0 0h16v16H0z"/></clipPath></defs></symbol><use href="#b"/></svg>