<svg xmlns="http://www.w3.org/2000/svg" viewBox="0 0 16 17"><symbol xmlns="http://www.w3.org/2000/svg" fill="none" viewBox="0 0 16 17" id="b"><g clip-path="url(#a)"><path fill-rule="evenodd" clip-rule="evenodd" d="M3.962 1.73c-.378.162-1.068.57-1.532.904-.708.51-.796.705-.537 1.195.359.678 1.71 1.337 3.252 1.587l1.08.175-.707 1.055c-.389.58-.79 1.507-.893 2.06-.149.803-.323 1.005-.87 1.005C2.13 9.711 1 10.873 1 12.547c0 1.145 1.083 3.02 2.032 3.517 1.872.98 4.02.258 5.004-1.682.812-1.603.72-2.775-.298-3.806-.501-.508-1.163-.865-1.606-.865-.922 0-.961-.495-.166-2.074.659-1.309 2.179-2.949 3.422-3.692 1.028-.616 1.943-2.116 1.47-2.412-.18-.113-.508.07-.729.407-.368.563-.467.578-1.235.19-1.07-.541-4.04-.782-4.932-.4zm4.98 3.308c-.494.5-.42 1.9.199 3.712.446 1.309.463 1.553.105 1.553-.3 0-.355.152-.188.517.13.285.247 1.43.261 2.545.024 1.833.095 2.065.744 2.43.396.221 1.159.407 1.697.413 1.877.02 3.669-2.72 3.149-4.817-.094-.38-.51-1.06-.922-1.512-.598-.653-.942-.793-1.686-.687-.514.073-1.146.227-1.404.342-.656.291-1.283-1.32-1.283-3.298 0-.854-.073-1.553-.16-1.553-.089 0-.319.16-.512.355z" fill="#F9B242"/></g><defs><clipPath id="a"><path fill="#fff" transform="translate(0 .5)" d="M0 0h16v16H0z"/></clipPath></defs></symbol><use href="#b"/></svg>