<svg viewBox="0 0 236 40" fill="none" xmlns="http://www.w3.org/2000/svg" class="icon-category-jackpot-game-info"><path d="M9.62895 11.0037C4.38878 11.6397 0.5 16.0923 0.5 21.3638V29C0.5 34.799 5.20101 39.5 11 39.5H225C230.799 39.5 235.5 34.799 235.5 29V21.3638C235.5 16.0923 231.611 11.6397 226.371 11.0037C211.29 9.17331 179.626 5.56507 156.202 4.50391C126.654 3.16536 109.346 3.16536 79.7984 4.50391C56.3742 5.56507 24.7098 9.17331 9.62895 11.0037Z" fill="#302D28" stroke="#302D28" stroke-linecap="round"></path><path d="M1 21.3638C1 16.3416 4.70353 12.1052 9.68919 11.5C24.7703 9.66964 56.4177 6.06361 79.821 5.0034C109.353 3.66553 126.647 3.66553 156.179 5.0034C179.582 6.06361 211.23 9.66964 226.311 11.5C231.296 12.1052 235 16.3416 235 21.3638V29C235 34.5229 230.523 39 225 39H11C5.47715 39 1 34.5228 1 29V21.3638Z" fill="#302D28" stroke="url(#paint0_linear_1647_45852)" stroke-width="2" stroke-linecap="round" stroke-dasharray="0.01 4"></path><path d="M93 6C93 2.68629 95.6863 0 99 0H137C140.314 0 143 2.68629 143 6H93Z" fill="#302D28"></path><path d="M100.172 10.9813C99.6089 11.1342 99.0472 11.2949 98.4883 11.4636C98.4917 10.7876 98.4944 10.1131 98.4978 9.43716C97.997 9.55077 97.4981 9.66938 97 9.79228V12.3088C97.0007 12.9355 97.2979 13.132 97.8958 12.9148C98.8381 12.5768 99.7865 12.2645 100.74 11.978C101.36 11.7901 101.674 11.4407 101.68 10.9119C101.713 8.2782 101.746 5.64446 101.778 3.01143C101.267 3.01143 100.755 3.01215 100.244 3.01215C100.22 5.66875 100.196 8.32465 100.172 10.9813ZM104.61 3C103.905 5.65518 103.202 8.46183 102.507 11.4543C102.507 11.4614 102.507 11.4686 102.507 11.4757C103.006 11.3428 103.508 11.2156 104.01 11.0956C104.12 10.5597 104.231 10.0288 104.341 9.5029C104.98 9.38214 105.619 9.27068 106.261 9.1685C106.355 9.63294 106.45 10.0931 106.545 10.5511C107.054 10.4532 107.563 10.3632 108.073 10.2789C107.452 7.96167 106.837 5.54657 106.223 3H104.61ZM104.561 8.44254C104.831 7.20498 105.102 5.99529 105.373 4.80989C105.602 5.97028 105.831 7.10709 106.061 8.22247C105.561 8.29106 105.06 8.36466 104.561 8.44254ZM113.164 3.00929C112.098 3.00929 111.031 3.00929 109.965 3.00929C109.358 3.00857 109.05 3.22722 109.043 3.66594C109.011 5.60802 108.98 7.5501 108.948 9.49218C108.941 9.92876 109.243 10.0974 109.856 10.0152C110.933 9.87231 112.013 9.76013 113.095 9.67796C113.729 9.63008 114.048 9.41215 114.051 9.00988C114.056 8.46612 114.06 7.92165 114.065 7.37647C113.55 7.39719 113.037 7.42149 112.523 7.4515C112.517 7.92165 112.512 8.39253 112.506 8.86268C111.837 8.91341 111.167 8.97415 110.499 9.04489C110.524 7.32931 110.549 5.61445 110.575 3.89887C111.237 3.88816 111.901 3.87887 112.564 3.87172C112.559 4.31401 112.554 4.7563 112.549 5.19788C113.061 5.18288 113.572 5.17073 114.083 5.16144C114.088 4.64627 114.092 4.13181 114.096 3.61664C114.1 3.2115 113.789 3.00929 113.164 3.00929ZM120.224 3.05502C120.224 3.04001 120.224 3.02429 120.224 3.00857H118.545C117.98 3.92674 117.41 4.8399 116.837 5.76021C116.838 4.84276 116.84 3.92603 116.841 3.00857H115.307C115.295 5.19002 115.283 7.37147 115.271 9.55292C115.79 9.53291 116.31 9.52005 116.83 9.51433C116.831 8.54686 116.833 7.58011 116.834 6.61264C117.488 7.57582 118.146 8.54186 118.809 9.52505C119.382 9.53791 119.954 9.55935 120.527 9.58936C119.726 8.4111 118.932 7.27072 118.144 6.14248C118.843 5.11714 119.536 4.09394 120.224 3.05502ZM125.113 3.00929C123.774 3.00929 122.435 3.00929 121.096 3.00857C121.115 5.21432 121.135 7.41934 121.154 9.62508C121.673 9.65795 122.191 9.69725 122.71 9.74441C122.7 8.93128 122.69 8.11815 122.681 7.3043C123.516 7.35218 124.35 7.4122 125.184 7.48365C125.812 7.53867 126.123 7.3486 126.115 6.90274C126.097 5.82452 126.08 4.7463 126.062 3.66808C126.054 3.22793 125.738 3.00857 125.113 3.00929ZM122.67 6.43901C122.66 5.58372 122.649 4.72915 122.639 3.87387C123.265 3.88101 123.891 3.88958 124.517 3.9003C124.53 4.7806 124.543 5.66089 124.556 6.5419C123.928 6.50189 123.299 6.46759 122.67 6.43901ZM131.379 3.01072C130.27 3.01072 129.159 3.01 128.05 3.01C127.442 3.01072 127.142 3.23508 127.15 3.68309C127.185 5.67804 127.218 7.67157 127.252 9.66581C127.26 10.1117 127.569 10.3846 128.179 10.4989C129.293 10.7069 130.402 10.9484 131.504 11.222C132.121 11.3771 132.424 11.2042 132.417 10.6876C132.385 8.38752 132.353 6.08889 132.321 3.78884C132.314 3.26866 132 3.00929 131.379 3.01072ZM128.787 9.64152C128.755 7.7566 128.722 5.87239 128.69 3.98676C129.392 4.00462 130.093 4.02463 130.794 4.04678C130.825 6.04459 130.857 8.04241 130.889 10.0402C130.19 9.89589 129.489 9.76299 128.787 9.64152ZM138 3.01286C136.363 3.01215 134.727 3.01143 133.09 3.01072C133.095 3.39227 133.1 3.77455 133.105 4.1561C133.667 4.17754 134.23 4.19897 134.793 4.22255C134.816 6.86987 134.84 9.51647 134.865 12.1638C135.364 12.3196 135.863 12.4832 136.359 12.6532C136.344 9.86445 136.33 7.07637 136.316 4.28758C136.877 4.31258 137.439 4.33902 138 4.36617V3.01286Z" fill="url(#paint1_linear_1647_45852)"></path><defs><linearGradient id="paint0_linear_1647_45852" x1="243.8" y1="21.2506" x2="1.96432" y2="-4.01637" gradientUnits="userSpaceOnUse"><stop stop-color="#3146B4"></stop><stop offset="1" stop-color="#8BA8F3"></stop></linearGradient><linearGradient id="paint1_linear_1647_45852" x1="139.542" y1="7.92875" x2="96.8815" y2="5.19541" gradientUnits="userSpaceOnUse"><stop stop-color="#3146B4"></stop><stop offset="1" stop-color="#8BA8F3"></stop></linearGradient></defs></svg>